<?xml version="1.0" encoding="utf-8"?>
<!-- Generator: Adobe Illustrator 23.0.3, SVG Export Plug-In . SVG Version: 6.00 Build 0)  -->
<svg version="1.1" id="Layer_1" xmlns="http://www.w3.org/2000/svg" xmlns:xlink="http://www.w3.org/1999/xlink" x="0px" y="0px"
	 viewBox="0 0 32 32" style="enable-background:new 0 0 32 32;" xml:space="preserve">
<style type="text/css">
	.Black{fill:#727272;}
</style>
<path class="Black" d="M31,8H1C0.4,8,0,8.4,0,9v14c0,0.6,0.4,1,1,1h30c0.6,0,1-0.4,1-1V9C32,8.4,31.6,8,31,8z M14,22H2V10h12V22z
	 M20,18c-1.1,0-2-0.9-2-2s0.9-2,2-2s2,0.9,2,2S21.1,18,20,18z M26,18c-1.1,0-2-0.9-2-2s0.9-2,2-2s2,0.9,2,2S27.1,18,26,18z"/>
</svg>
