<?xml version="1.0" encoding="utf-8"?>
<!-- Generator: Adobe Illustrator 23.0.3, SVG Export Plug-In . SVG Version: 6.00 Build 0)  -->
<svg version="1.1" id="Layer_1" xmlns="http://www.w3.org/2000/svg" xmlns:xlink="http://www.w3.org/1999/xlink" x="0px" y="0px"
	 viewBox="0 0 32 32" style="enable-background:new 0 0 32 32;" xml:space="preserve">
<style type="text/css">
	.Black{fill:#727272;}
	.Blue{fill:#1177D7;}
	.Red{fill:#D11C1C;}
	.st0{opacity:0.3;}
</style>
<rect x="12" y="12" class="Blue" width="4" height="4"/>
<rect x="18" y="12" class="Blue" width="4" height="4"/>
<rect x="12" y="18" class="Blue" width="4" height="4"/>
<rect x="18" y="18" class="Blue" width="4" height="4"/>
<rect x="12" y="24" class="Blue" width="4" height="4"/>
<rect x="18" y="24" class="Blue" width="4" height="4"/>
<g class="st0">
	<rect x="12" y="8" class="Black" width="4" height="2"/>
	<rect x="18" y="8" class="Black" width="4" height="2"/>
	<rect x="8" y="12" class="Black" width="2" height="4"/>
	<rect x="8" y="18" class="Black" width="2" height="4"/>
	<rect x="8" y="24" class="Black" width="2" height="4"/>
	<rect x="24" y="8" class="Black" width="4" height="2"/>
</g>
<rect x="24" y="12" class="Red" width="4" height="4"/>
<rect x="24" y="18" class="Red" width="4" height="4"/>
<rect x="24" y="24" class="Red" width="4" height="4"/>
<path class="Black" d="M31,4h-3V1c0-0.6-0.4-1-1-1h-1H16H1C0.4,0,0,0.4,0,1v10c0,0.6,0.4,1,1,1h3v19c0,0.6,0.4,1,1,1h26
	c0.6,0,1-0.4,1-1V5C32,4.4,31.6,4,31,4z M2,10V2h14v2H5C4.4,4,4,4.4,4,5v5H2z M30,30H6V12v-2V6h24V30z"/>
</svg>
