<?xml version="1.0" encoding="utf-8"?>
<!-- Generator: Adobe Illustrator 23.0.3, SVG Export Plug-In . SVG Version: 6.00 Build 0)  -->
<svg version="1.1" id="Layer_1" xmlns="http://www.w3.org/2000/svg" xmlns:xlink="http://www.w3.org/1999/xlink" x="0px" y="0px"
	 viewBox="0 0 32 32" style="enable-background:new 0 0 32 32;" xml:space="preserve">
<style type="text/css">
	.Black{fill:#727272;}
	.Blue{fill:#1177D7;}
</style>
<path class="Black" d="M29,2H3C2.4,2,2,2.4,2,3v26c0,0.6,0.4,1,1,1h26c0.6,0,1-0.4,1-1V3C30,2.4,29.6,2,29,2z M28,28H4V4h24V28z"/>
<path class="Blue" d="M29,2H18v28h11c0.6,0,1-0.4,1-1V3C30,2.4,29.6,2,29,2z M24,26l-4-4h8L24,26z M20,10l4-4l4,4H20z"/>
<rect x="6" y="6" class="Black" width="10" height="2"/>
<rect x="6" y="10" class="Black" width="6" height="2"/>
<rect x="6" y="14" class="Black" width="10" height="2"/>
<rect x="6" y="18" class="Black" width="6" height="2"/>
<rect x="6" y="22" class="Black" width="10" height="2"/>
</svg>
