<?xml version="1.0" encoding="utf-8"?>
<!-- Generator: Adobe Illustrator 21.1.0, SVG Export Plug-In . SVG Version: 6.00 Build 0)  -->
<svg version="1.1" id="Layer_1" xmlns="http://www.w3.org/2000/svg" xmlns:xlink="http://www.w3.org/1999/xlink" x="0px" y="0px"
	 viewBox="0 0 32 32" style="enable-background:new 0 0 32 32;" xml:space="preserve">
<style type="text/css">
	.Black{fill:#727272;}
	.Yellow{fill:#FFB115;}
	.st0{opacity:0.5;}
</style>
<path class="Black" d="M27,0h-1H16H1C0.4,0,0,0.4,0,1v10c0,0.6,0.4,1,1,1h7v-2H2V2h14v4h10h2V1C28,0.4,27.6,0,27,0z"/>
<rect x="10" y="8" class="Yellow" width="6" height="4"/>
<rect x="18" y="8" class="Yellow" width="6" height="4"/>
<rect x="26" y="8" class="Yellow" width="6" height="4"/>
<g class="st0">
	<rect x="10" y="14" class="Black" width="6" height="4"/>
	<rect x="18" y="14" class="Black" width="6" height="4"/>
	<rect x="26" y="14" class="Black" width="6" height="4"/>
	<rect x="10" y="20" class="Black" width="6" height="4"/>
	<rect x="18" y="20" class="Black" width="6" height="4"/>
	<rect x="26" y="20" class="Black" width="6" height="4"/>
	<rect x="10" y="26" class="Black" width="6" height="4"/>
	<rect x="18" y="26" class="Black" width="6" height="4"/>
	<rect x="26" y="26" class="Black" width="6" height="4"/>
</g>
</svg>
