<?xml version="1.0" encoding="utf-8"?>
<!-- Generator: Adobe Illustrator 23.0.3, SVG Export Plug-In . SVG Version: 6.00 Build 0)  -->
<svg version="1.1" id="Layer_1" xmlns="http://www.w3.org/2000/svg" xmlns:xlink="http://www.w3.org/1999/xlink" x="0px" y="0px"
	 viewBox="0 0 32 32" style="enable-background:new 0 0 32 32;" xml:space="preserve">
<style type="text/css">
	.Black{fill:#727272;}
	.Blue{fill:#1177D7;}
	.Red{fill:#D11C1C;}
</style>
<path class="Black" d="M21.4,28H6V4h20v19.4l2,2V3c0-0.5-0.5-1-1-1H5C4.5,2,4,2.5,4,3v26c0,0.5,0.5,1,1,1h18.4L21.4,28z"/>
<path class="Blue" d="M27.6,27.9L23,23.3c0.6-0.9,1-2.1,1-3.3c0-3.3-2.7-6-6-6s-6,2.7-6,6s2.7,6,6,6c1.2,0,2.3-0.4,3.3-1l4.6,4.6
	c0.5,0.5,1.3,0.5,1.7,0C28.1,29.2,28.1,28.4,27.6,27.9z M18,24c-2.2,0-4-1.8-4-4s1.8-4,4-4s4,1.8,4,4S20.2,24,18,24z"/>
<path class="Red" d="M2,7v4c0,0.5,0.5,1,1,1h9v-2V6H3C2.5,6,2,6.5,2,7z"/>
</svg>
