<?xml version="1.0" encoding="utf-8"?>
<!-- Generator: Adobe Illustrator 23.0.3, SVG Export Plug-In . SVG Version: 6.00 Build 0)  -->
<svg version="1.1" id="Layer_1" xmlns="http://www.w3.org/2000/svg" xmlns:xlink="http://www.w3.org/1999/xlink" x="0px" y="0px"
	 viewBox="0 0 32 32" style="enable-background:new 0 0 32 32;" xml:space="preserve">
<style type="text/css">
	.Black{fill:#727272;}
</style>
<path class="Black" d="M31,4h-5h-2h-4h-2H3C2.4,4,2,4.4,2,5v22c0,0.6,0.4,1,1,1h3h2h4h2h17c0.6,0,1-0.4,1-1V5C32,4.4,31.6,4,31,4z
	 M24,6v2h-4V6H24z M12,14H8v-4h4V14z M14,10h4v4h-4V10z M12,16v4H8v-4H12z M14,16h4v4h-4V16z M20,16h4v4h-4V16z M20,14v-4h4v4H20z
	 M18,6v2h-4V6H18z M12,6v2H8V6H12z M4,6h2v2H4V6z M4,10h2v4H4V10z M4,16h2v4H4V16z M4,26v-4h2v4H4z M8,26v-4h4v4H8z M14,26v-4h4v4
	H14z M20,26v-4h4v4H20z M30,26h-4v-4h4V26z M30,20h-4v-4h4V20z M30,14h-4v-4h4V14z M30,8h-4V6h4V8z"/>
</svg>
