<?xml version="1.0" encoding="utf-8"?>
<!-- Generator: Adobe Illustrator 21.1.0, SVG Export Plug-In . SVG Version: 6.00 Build 0)  -->
<svg version="1.1" id="Layer_1" xmlns="http://www.w3.org/2000/svg" xmlns:xlink="http://www.w3.org/1999/xlink" x="0px" y="0px"
	 viewBox="0 0 32 32" style="enable-background:new 0 0 32 32;" xml:space="preserve">
<style type="text/css">
	.Black{fill:#727272;}
</style>
<path class="Black" d="M31,6H1C0.4,6,0,6.4,0,7v18c0,0.6,0.4,1,1,1h30c0.6,0,1-0.4,1-1V7C32,6.4,31.6,6,31,6z M30,24H2V8h28V24z"/>
<path class="Black" d="M27,22H17c-0.6,0-1-0.4-1-1V11c0-0.6,0.4-1,1-1h10c0.6,0,1,0.4,1,1v10C28,21.6,27.6,22,27,22z"/>
</svg>
