<?xml version="1.0" encoding="utf-8"?>
<!-- Generator: Adobe Illustrator 23.0.3, SVG Export Plug-In . SVG Version: 6.00 Build 0)  -->
<svg version="1.1" id="Layer_1" xmlns="http://www.w3.org/2000/svg" xmlns:xlink="http://www.w3.org/1999/xlink" x="0px" y="0px"
	 viewBox="0 0 32 32" style="enable-background:new 0 0 32 32;" xml:space="preserve">
<style type="text/css">
	.Black{fill:#727272;}
	.Blue{fill:#1177D7;}
	.st0{opacity:0.5;}
</style>
<path class="Blue" d="M30,6H2V3c0-0.6,0.4-1,1-1h26c0.6,0,1,0.4,1,1V6z"/>
<rect x="2" y="8" class="Blue" width="8" height="4"/>
<rect x="12" y="8" class="Blue" width="8" height="4"/>
<rect x="22" y="8" class="Blue" width="8" height="4"/>
<g class="st0">
	<polygon class="Black" points="30,14 6,14 2,14 2,18 2,30 6,30 6,18 30,18 	"/>
	<rect x="8" y="20" class="Black" width="22" height="4"/>
	<rect x="8" y="26" class="Black" width="10" height="4"/>
	<rect x="20" y="26" class="Black" width="10" height="4"/>
</g>
</svg>
