<?xml version="1.0" encoding="utf-8"?>
<!-- Generator: Adobe Illustrator 23.0.3, SVG Export Plug-In . SVG Version: 6.00 Build 0)  -->
<svg version="1.1" id="Layer_1" xmlns="http://www.w3.org/2000/svg" xmlns:xlink="http://www.w3.org/1999/xlink" x="0px" y="0px"
	 viewBox="0 0 32 32" style="enable-background:new 0 0 32 32;" xml:space="preserve">
<style type="text/css">
	.Black{fill:#727272;}
	.Red{fill:#D11C1C;}
</style>
<path class="Red" d="M28,16.8c-1.6,1.6-4.2,3.2-8,3.2c-5.3,0-7.1-6.2-16-7.7v2c8.1,1.5,9,7.7,16,7.7c3.4,0,6-1.3,8-2.7V16.8z"/>
<path class="Black" d="M31,14h-1V5c0-0.5-0.5-1-1-1H3C2.5,4,2,4.5,2,5v3H1C0.4,8,0,8.4,0,9v8c0,0.6,0.4,1,1,1h1v9c0,0.5,0.5,1,1,1
	h26c0.5,0,1-0.5,1-1v-3h1c0.6,0,1-0.4,1-1v-8C32,14.4,31.6,14,31,14z M2,10h2v6H2V10z M28,26H4v-8h1c0.6,0,1-0.4,1-1V9
	c0-0.6-0.4-1-1-1H4V6h24v8h-1c-0.6,0-1,0.4-1,1v8c0,0.6,0.4,1,1,1h1V26z M30,22h-2v-6h2V22z"/>
</svg>
