<?xml version="1.0" encoding="utf-8"?>
<!-- Generator: Adobe Illustrator 24.2.1, SVG Export Plug-In . SVG Version: 6.00 Build 0)  -->
<svg version="1.1" id="图层_1" xmlns="http://www.w3.org/2000/svg" xmlns:xlink="http://www.w3.org/1999/xlink" x="0px" y="0px"
	 viewBox="0 0 64 64" style="enable-background:new 0 0 64 64;" xml:space="preserve">
<style type="text/css">
	.st0{fill:#0D5493;}
	.st1{fill:none;}
	.st2{fill:#F8FAFA;}
</style>
<g>
	<path class="st0" d="M1,53.54c0-13.95,0-27.9,0-41.85C3.56,3.9,9.01,0.86,17.09,1.1c10.75,0.32,21.54,0.38,32.28-0.03
		c7.06-0.27,14.14,5.49,14.03,13.77c-0.15,11.68,0.04,23.37-0.06,35.06c-0.07,8.36-5.38,13.51-13.73,13.53
		c-10.87,0.03-21.74-0.25-32.6,0.09C9.21,63.76,3.87,60.84,1,53.54z M23.62,21.41c1.54,2.79,2.77,4.99,3.98,7.21
		c2.99,5.47,5.91,10.98,8.97,16.41c1.96,3.49,5.59,4.2,7.36,1.28c4.71-7.78,9.28-15.66,13.57-23.68c1.74-3.26-0.22-5.88-3.98-5.98
		c-3.79-0.1-7.58,0-11.38-0.04c-2.17-0.02-3.69,0.98-4.77,2.8c-0.78,1.32-1.6,2.62-2.44,3.9c-1.65,2.52-1.29,4.74,1.02,6.99
		c1.46-2.41,2.84-4.67,4.2-6.93c0.58-0.97,1.11-2.21,2.34-2.25c3.41-0.13,6.82-0.04,10.86-0.04c-4.34,7.59-8.35,14.6-12.62,22.06
		c-1.02-1.8-1.74-3.02-2.42-4.26c-3.54-6.45-7.01-12.95-10.63-19.36c-2.07-3.65-5.5-4.1-7.49-0.8c-4.6,7.61-8.99,15.36-13.22,23.18
		c-1.75,3.23,0.11,5.96,3.79,6.13C12.88,48.12,13.88,48,16,48c7,0,10.93-1.44,13.51-6.82c1.35-2.81,1.06-4.68-1.2-6.81
		c-1.56,2.54-2.99,4.88-4.44,7.22c-0.53,0.86-0.94,2.01-2.11,2.04c-3.4,0.08-6.81,0.03-10.75,0.03
		C15.29,36.09,19.26,29.09,23.62,21.41z"/>
	<path class="st1" d="M1,53.54c2.87,7.3,8.21,10.22,16.02,9.98c10.86-0.34,21.73-0.07,32.6-0.09c8.34-0.02,13.65-5.17,13.73-13.53
		c0.1-11.69-0.09-23.37,0.06-35.06C63.52,6.57,56.44,0.8,49.38,1.07C38.63,1.49,27.85,1.42,17.09,1.1C9.01,0.86,3.56,3.9,1,11.69
		C1,7.79,1,3.9,1,0c21.33,0,42.67,0,64,0c0,21.33,0,42.67,0,64c-21.33,0-42.67,0-64,0C1,60.51,1,57.03,1,53.54z"/>
	<path class="st2" d="M23.62,21.41C19.26,29.09,15.29,36.09,11,43.65c3.94,0,7.35,0.05,10.75-0.03c1.17-0.03,1.58-1.18,2.11-2.04
		c1.45-2.34,2.89-4.69,4.44-7.22c2.26,2.14,2.54,4.01,1.2,6.81C26.93,46.56,26.82,47.9,18,48c-2.19,0.03-5.12,0.12-7.26,0.02
		c-3.68-0.17-5.53-2.91-3.79-6.13c4.24-7.82,8.62-15.57,13.22-23.18c1.99-3.3,5.42-2.85,7.49,0.8c3.62,6.41,7.09,12.9,10.63,19.36
		c0.68,1.24,1.4,2.46,2.42,4.26c4.27-7.46,8.28-14.47,12.62-22.06c-4.04,0-7.45-0.08-10.86,0.04c-1.23,0.05-1.75,1.28-2.34,2.25
		c-1.36,2.26-2.74,4.52-4.2,6.93c-2.31-2.25-2.66-4.48-1.02-6.99c0.84-1.28,1.65-2.58,2.44-3.9c1.08-1.82,2.6-2.82,4.77-2.8
		c3.79,0.03,7.59-0.06,11.38,0.04c3.77,0.1,5.73,2.72,3.98,5.98c-4.29,8.02-8.86,15.9-13.57,23.68c-1.77,2.93-5.39,2.21-7.36-1.28
		c-3.06-5.43-5.98-10.94-8.97-16.41C26.39,26.4,25.16,24.2,23.62,21.41z"/>
</g>
</svg>
