<?xml version="1.0" encoding="utf-8"?>
<!-- Svg Vector Icons : http://www.onlinewebfonts.com/icon -->
<!DOCTYPE svg PUBLIC "-//W3C//DTD SVG 1.1//EN" "http://www.w3.org/Graphics/SVG/1.1/DTD/svg11.dtd">
<svg version="1.1" xmlns="http://www.w3.org/2000/svg" xmlns:xlink="http://www.w3.org/1999/xlink" x="0px" y="0px" viewBox="0 0 1000 1000" enable-background="new 0 0 1000 1000" xml:space="preserve">
<metadata> Svg Vector Icons : http://www.onlinewebfonts.com/icon </metadata>
<g><path d="M520,903.5c-6.6,0.3-13.3,0.5-20,0.5C277.2,904.1,95.9,722.8,95.9,500c0-86.9,28.1-171.5,79.6-240.8l0.2,0.2L343.8,81.5L27.9,111.6l86.3,86.3C46.9,283.8,10,390.4,10,500c0,270.2,219.8,490,490,490c8.1,0,16.2-0.2,24.1-0.6c23.7-1.2,42-21.3,40.8-45C563.8,920.6,542.9,902.9,520,903.5z"/><path d="M990,500c0-270.2-219.8-490-490-490c-19.7,0-39.5,1.2-58.9,3.5c-23.6,2.8-40.4,24.2-37.5,47.8c2.8,23.6,24.3,40.3,47.8,37.5c16-1.9,32.4-2.9,48.7-2.9c222.8,0,404.1,181.2,404.1,404.1c0,103.5-38.7,201.1-109.2,276.2L625.6,934.9l314.1-14L855.7,837C942.4,745.6,990,626.5,990,500z"/><path d="M341.8,336.6l87.1,97.8h-92.2c-18,0-32.7,14.8-32.7,32.8c0,18,14.6,32.8,32.7,32.8h130.1v65.6H336.7c-18,0-32.7,14.3-32.7,32.3c0,18,14.6,32.3,32.7,32.3h130.1v98.3c0,18,15.3,32.7,33.3,32.7c18,0,33.3-14.6,33.3-32.7v-98.3h129.9c18,0,32.7-14.3,32.7-32.3c0-18-14.6-32.3-32.7-32.3H533.4v-65.6h129.9c18,0,32.7-14.8,32.7-32.8c0-18-14.6-32.8-32.7-32.8H561.3l87.1-97.8c12-13.5,10.8-34.1-2.7-46.1c-13.5-12-34.1-10.8-46.1,2.7L495.1,410.5L390.6,293.2c-12-13.5-32.7-14.7-46.1-2.7C331,302.5,329.8,323.2,341.8,336.6z"/></g>
</svg>