<?xml version="1.0" encoding="UTF-8"?>
<svg xmlns="http://www.w3.org/2000/svg" viewBox="0 0 32 32">
    <style type="text/css">
        .Black {
            fill: #727272;
        }
        .White {
            fill: #ffffff;
        }
        .Blue {
            fill: #1177D7;
        }
        .Yellow {
            fill: #FFB115;
        }
        .Green {
            fill: #039C23;
        }
        .Red {
            fill: #D11C1C;
        }
    </style>
    <title>Search</title>
    <path class="White" d="M17,0a6,6,0,0,0-5.65,4H3V24H31V0Z"/>
    <rect class="Yellow" x="6" y="6" width="24" height="16"/>
    <path class="Yellow" d="M18,2a4,4,0,0,0-4,4h2a2,2,0,0,1,2-2H28V6h2V2Z"/>
    <path class="White" d="M11,14a7,7,0,0,0-7,7,7.4,7.4,0,0,0,.23,1.77L1.12,25.88a3,3,0,0,0,0,4.24l.76.76a3,3,0,0,0,4.24,0l3.11-3.11A7.4,7.4,0,0,0,11,28a7,7,0,0,0,0-14Z"/>
    <path class="Blue" d="M11,16a5,5,0,0,0-5,5,4.87,4.87,0,0,0,.63,2.37L2.71,27.29a1,1,0,0,0,0,1.42l.58.58a1,1,0,0,0,1.42,0l3.92-3.92A4.87,4.87,0,0,0,11,26a5,5,0,0,0,0-10Zm0,8a3,3,0,1,1,3-3A3,3,0,0,1,11,24Z"/>
</svg>
