<?xml version="1.0" encoding="utf-8"?>
<!-- Generator: Adobe Illustrator 23.0.2, SVG Export Plug-In . SVG Version: 6.00 Build 0)  -->
<svg version="1.1" id="Layer_1" xmlns="http://www.w3.org/2000/svg" xmlns:xlink="http://www.w3.org/1999/xlink" x="0px" y="0px"
	 viewBox="0 0 32 32" style="enable-background:new 0 0 32 32;" xml:space="preserve">
<style type="text/css">
	.Black{fill:#727272;}
</style>
<rect x="4" class="Black" width="2" height="2"/>
<rect y="20" class="Black" width="2" height="2"/>
<rect x="8" class="Black" width="2" height="2"/>
<rect x="12" class="Black" width="2" height="2"/>
<rect y="4" class="Black" width="2" height="2"/>
<rect class="Black" width="2" height="2"/>
<rect y="8" class="Black" width="2" height="2"/>
<rect y="12" class="Black" width="2" height="2"/>
<rect y="16" class="Black" width="2" height="2"/>
<path class="Black" d="M26,4H16V2h-2v2h-2v6H6v10H4v2h2v10h18v-6h6V8L26,4z M22,24v2v4H8V12h4h2h4v4h4V24z M28,24h-4V14l-4-4h-6V6
	h10v4h4V24z"/>
<rect x="10" y="22" class="Black" width="10" height="2"/>
<rect x="10" y="26" class="Black" width="10" height="2"/>
<rect x="10" y="18" class="Black" width="10" height="2"/>
</svg>
