<?xml version="1.0" standalone="no"?><!DOCTYPE svg PUBLIC "-//W3C//DTD SVG 1.1//EN" "http://www.w3.org/Graphics/SVG/1.1/DTD/svg11.dtd"><svg t="1665627528475" class="icon" viewBox="0 0 1024 1024" version="1.1" xmlns="http://www.w3.org/2000/svg" p-id="17860" xmlns:xlink="http://www.w3.org/1999/xlink"><path d="M519.757576 519.757576m-201.69697 0a201.69697 201.69697 0 1 0 403.393939 0 201.69697 201.69697 0 1 0-403.393939 0Z" fill="#FFDD33" p-id="17861"></path><path d="M512 310.30303a201.69697 201.69697 0 1 1-201.69697 201.69697 201.69697 201.69697 0 0 1 201.69697-201.69697m0-15.515151a217.212121 217.212121 0 1 0 217.212121 217.212121 217.212121 217.212121 0 0 0-217.212121-217.212121z" fill="#352635" p-id="17862"></path><path d="M555.862262 263.741332m-5.485435 5.485435l0 0q-5.485434 5.485434-10.970868 0l-32.912607-32.912607q-5.485434-5.485434 0-10.970869l0 0q5.485434-5.485434 10.970869 0l32.912606 32.912607q5.485434 5.485434 0 10.970869Z" fill="#352635" p-id="17863"></path><path d="M511.990183 219.90174m5.485435 5.485435l0 0q5.485434 5.485434 0 10.970869l-32.912607 32.912606q-5.485434 5.485434-10.970869 0l0 0q-5.485434-5.485434 0-10.970869l32.912607-32.912606q5.485434-5.485434 10.970869 0Z" fill="#352635" p-id="17864"></path><path d="M468.092134 760.195115m5.485434-5.485435l0 0q5.485434-5.485434 10.970869 0l32.912607 32.912607q5.485434 5.485434 0 10.970868l0 0q-5.485434 5.485434-10.970869 0l-32.912607-32.912606q-5.485434-5.485434 0-10.970869Z" fill="#352635" p-id="17865"></path><path d="M511.967816 804.168629m-5.485435-5.485434l0 0q-5.485434-5.485434 0-10.970869l32.912607-32.912607q5.485434-5.485434 10.970869 0l0 0q5.485434 5.485434 0 10.970869l-32.912607 32.912607q-5.485434 5.485434-10.970869 0Z" fill="#352635" p-id="17866"></path><path d="M367.553939 305.415758m0 7.757575l0 0q0 7.757576-7.757575 7.757576l-46.545455 0q-7.757576 0-7.757576-7.757576l0 0q0-7.757576 7.757576-7.757575l46.545455 0q7.757576 0 7.757575 7.757575Z" fill="#352635" p-id="17867"></path><path d="M305.415758 305.415758m7.757575 0l0 0q7.757576 0 7.757576 7.757575l0 46.545455q0 7.757576-7.757576 7.757576l0 0q-7.757576 0-7.757575-7.757576l0-46.545455q0-7.757576 7.757575-7.757575Z" fill="#352635" p-id="17868"></path><path d="M656.523636 718.506667m0-7.757576l0 0q0-7.757576 7.757576-7.757576l46.545455 0q7.757576 0 7.757575 7.757576l0 0q0 7.757576-7.757575 7.757576l-46.545455 0q-7.757576 0-7.757576-7.757576Z" fill="#352635" p-id="17869"></path><path d="M718.506667 718.506667m-7.757576 0l0 0q-7.757576 0-7.757576-7.757576l0-46.545455q0-7.757576 7.757576-7.757575l0 0q7.757576 0 7.757576 7.757575l0 46.545455q0 7.757576-7.757576 7.757576Z" fill="#352635" p-id="17870"></path><path d="M263.785216 468.146827m5.485434 5.485434l0 0q5.485434 5.485434 0 10.970869l-32.912606 32.912607q-5.485434 5.485434-10.970869 0l0 0q-5.485434-5.485434 0-10.970869l32.912606-32.912607q5.485434-5.485434 10.970869 0Z" fill="#352635" p-id="17871"></path><path d="M219.889439 511.955514m5.485434-5.485435l0 0q5.485434-5.485434 10.970869 0l32.912606 32.912607q5.485434 5.485434 0 10.970869l0 0q-5.485434 5.485434-10.970868 0l-32.912607-32.912607q-5.485434-5.485434 0-10.970869Z" fill="#352635" p-id="17872"></path><path d="M760.255454 555.929418m-5.485434-5.485434l0 0q-5.485434-5.485434 0-10.970869l32.912606-32.912607q5.485434-5.485434 10.970869 0l0 0q5.485434 5.485434 0 10.970869l-32.912606 32.912607q-5.485434 5.485434-10.970869 0Z" fill="#352635" p-id="17873"></path><path d="M804.149901 511.980543m-5.485435 5.485435l0 0q-5.485434 5.485434-10.970869 0l-32.912606-32.912607q-5.485434-5.485434 0-10.970869l0 0q5.485434-5.485434 10.970869 0l32.912606 32.912607q5.485434 5.485434 0 10.970869Z" fill="#352635" p-id="17874"></path><path d="M305.415758 656.523636m7.757575 0l0 0q7.757576 0 7.757576 7.757576l0 46.545455q0 7.757576-7.757576 7.757575l0 0q-7.757576 0-7.757575-7.757575l0-46.545455q0-7.757576 7.757575-7.757576Z" fill="#352635" p-id="17875"></path><path d="M305.493333 718.584242m0-7.757575l0 0q0-7.757576 7.757576-7.757576l46.545455 0q7.757576 0 7.757575 7.757576l0 0q0 7.757576-7.757575 7.757575l-46.545455 0q-7.757576 0-7.757576-7.757575Z" fill="#352635" p-id="17876"></path><path d="M718.506667 367.553939m-7.757576 0l0 0q-7.757576 0-7.757576-7.757575l0-46.545455q0-7.757576 7.757576-7.757576l0 0q7.757576 0 7.757576 7.757576l0 46.545455q0 7.757576-7.757576 7.757575Z" fill="#352635" p-id="17877"></path><path d="M718.584242 305.493333m0 7.757576l0 0q0 7.757576-7.757575 7.757576l-46.545455 0q-7.757576 0-7.757576-7.757576l0 0q0-7.757576 7.757576-7.757576l46.545455 0q7.757576 0 7.757575 7.757576Z" fill="#352635" p-id="17878"></path></svg>