<?xml version="1.0" standalone="no"?><!DOCTYPE svg PUBLIC "-//W3C//DTD SVG 1.1//EN" "http://www.w3.org/Graphics/SVG/1.1/DTD/svg11.dtd"><svg t="1665557617957" class="icon" viewBox="0 0 1024 1024" version="1.1" xmlns="http://www.w3.org/2000/svg" p-id="50370" xmlns:xlink="http://www.w3.org/1999/xlink" width="32" height="32"><path d="M862.39 161.61A222.53 222.53 0 0 0 704 96H320A224 224 0 0 0 96 320v384a224 224 0 0 0 224 224h384a224 224 0 0 0 224-224V320a222.53 222.53 0 0 0-65.61-158.39zM704 736a32 32 0 0 1-32 32H352a32 32 0 0 1-32-32 32 32 0 0 1 32-32h320a32 32 0 0 1 32 32z m-8.88-211.62L529.75 634.63a32 32 0 0 1-35.5 0L328.88 524.38A32 32 0 0 1 320 480a32 32 0 0 1 44.38-8.88l103.18 68.8a8 8 0 0 0 12.44-6.66V288a32 32 0 0 1 32-32 32 32 0 0 1 32 32v245.26a8 8 0 0 0 12.44 6.66l103.18-68.8A32 32 0 0 1 704 480a32 32 0 0 1-8.88 44.38z" p-id="50371"></path></svg>