<?xml version="1.0" standalone="no"?><!DOCTYPE svg PUBLIC "-//W3C//DTD SVG 1.1//EN" "http://www.w3.org/Graphics/SVG/1.1/DTD/svg11.dtd"><svg t="1665212462426" class="icon" viewBox="0 0 1024 1024" version="1.1" xmlns="http://www.w3.org/2000/svg" p-id="4822" xmlns:xlink="http://www.w3.org/1999/xlink" width="32" height="32"><path d="M448 448H224a32 32 0 0 0-32 32v64a32 32 0 0 0 32 32h576a32 32 0 0 0 32-32v-64a32 32 0 0 0-32-32h-224V160a32 32 0 0 0-32-32h-64a32 32 0 0 0-32 32v288z m-64-64V128a64 64 0 0 1 64-64h128a64 64 0 0 1 64 64v256h192a64 64 0 0 1 64 64v128a64 64 0 0 1-64 64v256a64 64 0 0 1-64 64H256a64 64 0 0 1-64-64v-256a64 64 0 0 1-64-64v-128a64 64 0 0 1 64-64h192z m384 256H256v224a32 32 0 0 0 32 32h448a32 32 0 0 0 32-32v-224z m-96 64a32 32 0 0 1 32 32v160h-64v-160a32 32 0 0 1 32-32z m-128 64a32 32 0 0 1 32 32v96h-64v-96a32 32 0 0 1 32-32z m-128 64a32 32 0 0 1 32 32v32h-64v-32a32 32 0 0 1 32-32z" fill="#000000" p-id="4823"></path></svg>