<?xml version="1.0" standalone="no"?><!DOCTYPE svg PUBLIC "-//W3C//DTD SVG 1.1//EN" "http://www.w3.org/Graphics/SVG/1.1/DTD/svg11.dtd"><svg t="1664419984957" class="icon" viewBox="0 0 1024 1024" version="1.1" xmlns="http://www.w3.org/2000/svg" p-id="32688" xmlns:xlink="http://www.w3.org/1999/xlink" ><path d="M64.383234 168.827146a102.2 102.2 0 1 0 208.887824 0 102.2 102.2 0 1 0-208.887824 0Z" p-id="32689"></path><path d="M750.728942 168.827146a102.2 102.2 0 1 0 208.887824 0 102.2 102.2 0 1 0-208.887824 0Z" p-id="32690"></path><path d="M168.827146 855.172854m-104.443912 0a102.2 102.2 0 1 0 208.887824 0 102.2 102.2 0 1 0-208.887824 0Z" p-id="32691"></path><path d="M750.728942 855.172854a102.2 102.2 0 1 0 208.887824 0 102.2 102.2 0 1 0-208.887824 0Z" p-id="32692"></path><path d="M358.425831 183.747705C373.700275 183.747705 386.082659 173.727462 386.082659 161.366866 386.082659 149.006271 373.700275 138.986028 358.425831 138.986028L330.769003 138.986028C315.494559 138.986028 303.112176 149.006271 303.112176 161.366866 303.112176 173.727462 315.494559 183.747705 330.769003 183.747705L358.425831 183.747705ZM469.053141 183.747705C484.327584 183.747705 496.709968 173.727462 496.709968 161.366866 496.709968 149.006271 484.327584 138.986028 469.053141 138.986028L441.396313 138.986028C426.121869 138.986028 413.739486 149.006271 413.739486 161.366866 413.739486 173.727462 426.121869 183.747705 441.396313 183.747705L469.053141 183.747705ZM579.680451 183.747705C594.954895 183.747705 607.337279 173.727462 607.337279 161.366866 607.337279 149.006271 594.954895 138.986028 579.680451 138.986028L552.023624 138.986028C536.74918 138.986028 524.366796 149.006271 524.366796 161.366866 524.366796 173.727462 536.74918 183.747705 552.023624 183.747705L579.680451 183.747705ZM690.307761 183.747705C705.582206 183.747705 717.964588 173.727462 717.964588 161.366866 717.964588 149.006271 705.582206 138.986028 690.307761 138.986028L662.650933 138.986028C647.376489 138.986028 634.994107 149.006271 634.994107 161.366866 634.994107 173.727462 647.376489 183.747705 662.650933 183.747705L690.307761 183.747705Z" p-id="32693"></path><path d="M358.44913 885.017887C373.723572 885.007535 386.095527 875.033455 386.082664 862.740158 386.0698 850.44686 373.67699 840.489567 358.402547 840.499919L330.74572 840.518665C315.471277 840.529018 303.099321 850.503097 303.112186 862.796394 303.125049 875.089692 315.51786 885.046986 330.792303 885.036633L358.44913 885.017887ZM469.076434 884.942905C484.350878 884.932552 496.722833 874.958473 496.709969 862.665175 496.697105 850.371878 484.304294 840.414584 469.029851 840.424938L441.373025 840.443683C426.098582 840.454036 413.726627 850.428115 413.73949 862.721412 413.752354 875.01471 426.145165 884.972003 441.419607 884.961651L469.076434 884.942905ZM579.703739 884.867922C594.978182 884.85757 607.350137 874.883491 607.337274 862.590193 607.32441 850.296895 594.9316 840.339602 579.657156 840.349955L552.00033 840.3687C536.725886 840.379054 524.353931 850.353133 524.366795 862.64643 524.379658 874.939727 536.772469 884.897021 552.046913 884.886668L579.703739 884.867922ZM690.331044 884.79294C705.605487 884.782588 717.977442 874.808508 717.964578 862.515211 717.951715 850.221913 705.558904 840.264619 690.284461 840.274973L662.627635 840.293718C647.353192 840.304071 634.981236 850.278151 634.994099 862.571447 635.006964 874.864745 647.399775 884.822038 662.674217 884.811686L690.331044 884.79294Z" p-id="32694"></path><path d="M332.092776 733.419697C340.751987 724.599131 340.621186 710.428972 331.800621 701.76976 322.980057 693.110547 308.809898 693.241349 300.150685 702.061913L279.245496 723.356641C270.586283 732.177206 270.717085 746.347365 279.53765 755.006577 288.358215 763.66579 302.528374 763.534988 311.187587 754.714424L332.092776 733.419697ZM415.713529 648.240788C424.372742 639.420224 424.24194 625.250064 415.421376 616.590852 406.600811 607.931639 392.430651 608.06244 383.771438 616.883006L362.866251 638.177733C354.207038 646.998297 354.33784 661.168457 363.158404 669.827669 371.978969 678.486882 386.149129 678.35608 394.808341 669.535515L415.713529 648.240788ZM499.334284 563.06188C507.993497 554.241315 507.862695 540.071156 499.04213 531.411943 490.221565 522.752731 476.051406 522.883533 467.392193 531.704097L446.487004 552.998824C437.827791 561.819389 437.958594 575.989548 446.779158 584.648761 455.599723 593.307974 469.769882 593.177172 478.429095 584.356607L499.334284 563.06188ZM582.955038 477.882972C591.61425 469.062407 591.483449 454.892248 582.662884 446.233035 573.84232 437.573822 559.67216 437.704624 551.012948 446.525189L530.107759 467.819915C521.448546 476.640481 521.579348 490.81064 530.399913 499.469853 539.220477 508.129065 553.390637 507.998263 562.04985 499.177699L582.955038 477.882972ZM666.575792 392.704063C675.235005 383.883499 675.104203 369.713339 666.283639 361.054126 657.463073 352.394914 643.292914 352.525716 634.633701 361.346281L613.728513 382.641008C605.069301 391.461572 605.200102 405.631732 614.020667 414.290944 622.841232 422.950157 637.011391 422.819356 645.670603 413.99879L666.575792 392.704063ZM750.196546 307.525155C758.855759 298.70459 758.724958 284.534431 749.904392 275.875219 741.083828 267.216006 726.913668 267.346807 718.254456 276.167372L697.349267 297.462099C688.690054 306.282665 688.820857 320.452824 697.641421 329.112036 706.461986 337.771249 720.632145 337.640447 729.291358 328.819883L750.196546 307.525155Z" p-id="32695"></path></svg>