<?xml version="1.0" encoding="utf-8"?>
<!-- Generator: Adobe Illustrator 23.0.2, SVG Export Plug-In . SVG Version: 6.00 Build 0)  -->
<svg version="1.1" id="Layer_1" xmlns="http://www.w3.org/2000/svg" xmlns:xlink="http://www.w3.org/1999/xlink" x="0px" y="0px"
	 viewBox="0 0 32 32" style="enable-background:new 0 0 32 32;" xml:space="preserve">
<style type="text/css">
	.Yellow{fill:#FFB115;}
	.Blue{fill:#1177D7;}
</style>
<path class="Blue" d="M8.7,14.1c-2.2,0.5-3.9,2.2-4.5,4.3c-0.4,1.7-0.1,3.3,0.7,4.6l-4.5,4.5c-0.6,0.6-0.6,1.4,0,2l0,0
	c0.6,0.6,1.4,0.6,2,0l4.5-4.5c1.3,0.8,2.9,1.1,4.6,0.7c2.1-0.5,3.9-2.3,4.3-4.5C16.8,17,13,13.2,8.7,14.1z M10,24c-2.2,0-4-1.8-4-4
	c0-2.2,1.8-4,4-4s4,1.8,4,4C14,22.2,12.2,24,10,24z"/>
<path class="Yellow" d="M20,2l-4,4H8H6v7.1c1.2-0.7,2.5-1.1,4-1.1c4.4,0,8,3.6,8,8c0,2.4-1.1,4.5-2.7,6H32v-2V6V2H20z M30,6H19l2-2
	h9V6z"/>
</svg>
