<?xml version="1.0" standalone="no"?><!DOCTYPE svg PUBLIC "-//W3C//DTD SVG 1.1//EN" "http://www.w3.org/Graphics/SVG/1.1/DTD/svg11.dtd"><svg t="1666058373194" class="icon" viewBox="0 0 1024 1024" version="1.1" xmlns="http://www.w3.org/2000/svg" p-id="5815" xmlns:xlink="http://www.w3.org/1999/xlink" width="32" height="32"><path d="M805.407465 263.243068h-168.306498V207.104777c0-30.959148-25.070768-56.029916-56.138291-56.029916H328.484866v-28.105271c0-30.959148-25.070768-56.029916-56.029916-56.029916H216.316658c-30.959148 0-56.138291 25.106893-56.138291 56.029916v785.5387c0 30.959148 25.179143 56.138291 56.138291 56.138292h56.138292c30.959148 0 56.029916-25.179143 56.029916-56.138292V656.03048h252.47781v28.033021c0 31.031398 26.407394 56.138291 56.138291 56.138291h168.306498c30.959148 0 56.138291-25.070768 56.138291-56.138291V319.381359c0-30.959148-25.179143-56.138291-56.138291-56.138291zM272.45495 880.47527c0 15.497636-12.535384 28.033021-28.105271 28.03302-15.497636 0-28.033021-12.535384-28.033021-28.03302V151.074861c0-15.461511 12.535384-28.105271 28.033021-28.105271 15.569886 0 28.105271 12.643759 28.105271 28.105271v729.400409z m308.507726-308.616101c0 15.497636-12.535384 28.033021-28.033021 28.03302H328.484866V207.140902h224.444789c15.461511 0 28.033021 12.643759 28.033021 28.10527v336.612997z m224.444789 84.135186c0 15.497636-12.535384 28.033021-28.033021 28.033021h-140.309602V319.381359h140.309602a28.033021 28.033021 0 0 1 28.033021 28.03302v308.579976z" p-id="5816"></path></svg>