<?xml version="1.0" standalone="no"?><!DOCTYPE svg PUBLIC "-//W3C//DTD SVG 1.1//EN" "http://www.w3.org/Graphics/SVG/1.1/DTD/svg11.dtd"><svg t="1654508659031" class="icon" viewBox="0 0 1024 1024" version="1.1" xmlns="http://www.w3.org/2000/svg" p-id="2819" xmlns:xlink="http://www.w3.org/1999/xlink"><defs><style type="text/css">@font-face { font-family: feedback-iconfont; src: url("//at.alicdn.com/t/font_1031158_u69w8yhxdu.woff2?t=1630033759944") format("woff2"), url("//at.alicdn.com/t/font_1031158_u69w8yhxdu.woff?t=1630033759944") format("woff"), url("//at.alicdn.com/t/font_1031158_u69w8yhxdu.ttf?t=1630033759944") format("truetype"); }
</style></defs><path d="M512 797.502429c-11.256368 0-20.363793 9.107425-20.363793 20.363793s9.107425 20.363793 20.363793 20.363793 20.363793-9.107425 20.363793-20.363793C532.466124 806.712185 523.256368 797.502429 512 797.502429M369.248785 759.333108c-9.721409-5.628184-22.205745-2.251274-27.833929 7.470135-5.628184 9.82374-2.251274 22.205745 7.470135 27.833929s22.205745 2.251274 27.833929-7.470135S378.970194 764.961292 369.248785 759.333108M257.196757 341.312526c-9.721409-5.628184-22.205745-2.251274-27.936259 7.470135-5.628184 9.721409-2.251274 22.205745 7.470135 27.833929s22.205745 2.251274 27.833929-7.470135C270.295076 359.425046 267.020496 346.94071 257.196757 341.312526M654.853545 264.666892c9.721409 5.628184 22.205745 2.251274 27.833929-7.470135 5.628184-9.82374 2.251274-22.205745-7.470135-27.833929s-22.205745-2.251274-27.833929 7.470135C641.755226 246.554372 645.029806 259.038708 654.853545 264.666892M206.031447 491.533876c-11.256368 0-20.363793 9.107425-20.363793 20.363793s9.107425 20.363793 20.363793 20.363793 20.363793-9.107425 20.363793-20.363793C226.39524 500.743632 217.287815 491.533876 206.031447 491.533876M236.832963 647.281079c-9.721409 5.628184-13.098319 18.11252-7.470135 27.833929s18.11252 13.098319 27.936259 7.470135c9.721409-5.628184 13.098319-18.11252 7.470135-27.833929C259.038708 645.029806 246.554372 641.652895 236.832963 647.281079M348.782661 229.260497c-9.721409 5.628184-13.098319 18.11252-7.470135 27.833929s18.11252 13.098319 27.833929 7.470135 13.098319-18.11252 7.470135-27.833929C371.090736 227.009224 358.606401 223.632313 348.782661 229.260497M766.803243 341.312526c-9.721409 5.628184-13.098319 18.11252-7.470135 27.833929s18.11252 13.098319 27.833929 7.470135 13.098319-18.11252 7.470135-27.833929C789.008988 339.061252 776.626983 335.684342 766.803243 341.312526M817.968553 491.533876c-11.256368 0-20.363793 9.107425-20.363793 20.363793s9.107425 20.363793 20.363793 20.363793 20.363793-9.107425 20.363793-20.363793C838.434677 500.743632 829.224922 491.533876 817.968553 491.533876M512 63.177901c-247.844761 0-448.822099 200.977337-448.822099 448.822099s200.875007 448.822099 448.822099 448.822099c247.844761 0 448.822099-200.875007 448.822099-448.822099C960.822099 264.155239 759.844761 63.177901 512 63.177901M512 919.889851c-225.332025 0-407.992181-182.660156-407.992181-407.992181s182.660156-407.889851 407.992181-407.889851 407.992181 182.660156 407.992181 407.992181S737.332025 919.889851 512 919.889851M654.853545 759.333108c-9.721409 5.628184-13.098319 18.11252-7.470135 27.833929s18.11252 13.098319 27.833929 7.470135 13.098319-18.11252 7.470135-27.833929C677.05929 756.979504 664.574954 753.704924 654.853545 759.333108M695.581132 491.533876l-104.888885 0c-7.470135-28.447912-29.77821-50.960649-58.328453-58.328453l0-227.276307c0-11.256368-9.107425-20.363793-20.363793-20.363793s-20.363793 9.107425-20.363793 20.363793l0 227.276307c-35.099403 9.107425-61.193711 40.727587-61.193711 78.692247 0 45.127803 36.532031 81.557504 81.557504 81.557504 37.96466 0 69.584821-26.094308 78.692247-61.193711l104.888885 0c11.256368 0 20.363793-9.107425 20.363793-20.363793C716.047256 500.743632 706.8375 491.533876 695.581132 491.533876M512 552.727587c-22.512736 0-40.829917-18.21485-40.829917-40.829917 0-22.512736 18.21485-40.829917 40.829917-40.829917 22.512736 0 40.829917 18.317181 40.829917 40.829917C552.829917 534.512736 534.512736 552.727587 512 552.727587M787.167037 647.281079c-9.721409-5.628184-22.205745-2.251274-27.833929 7.470135s-2.251274 22.205745 7.470135 27.833929 22.205745 2.251274 27.833929-7.470135S796.990776 652.909264 787.167037 647.281079" p-id="2820" fill="#1296db"></path></svg>