<?xml version="1.0" encoding="utf-8"?>
<!-- Generator: Adobe Illustrator 23.0.3, SVG Export Plug-In . SVG Version: 6.00 Build 0)  -->
<svg version="1.1" id="Layer_1" xmlns="http://www.w3.org/2000/svg" xmlns:xlink="http://www.w3.org/1999/xlink" x="0px" y="0px"
	 viewBox="0 0 32 32" style="enable-background:new 0 0 32 32;" xml:space="preserve">
<style type="text/css">
	.Black{fill:#727272;}
	.Blue{fill:#1177D7;}
	.Red{fill:#D11C1C;}
	.Yellow{fill:#FFB115;}
	.Green{fill:#039C23;}
</style>
<rect x="22" y="12" class="Green" width="6" height="6"/>
<path class="Black" d="M31,8h-3V3c0-0.6-0.4-1-1-1h-1H16H1C0.4,2,0,2.4,0,3v10c0,0.6,0.4,1,1,1h9v15c0,0.6,0.4,1,1,1h20
	c0.6,0,1-0.4,1-1V9C32,8.4,31.6,8,31,8z M2,12V4h14v4h-5c-0.6,0-1,0.4-1,1v3H2z M30,28H12V14v-2v-2h18V28z"/>
<rect x="14" y="12" class="Blue" width="6" height="6"/>
<rect x="22" y="20" class="Yellow" width="6" height="6"/>
<rect x="14" y="20" class="Red" width="6" height="6"/>
</svg>
