<?xml version="1.0" encoding="utf-8"?>
<!-- Generator: Adobe Illustrator 23.0.3, SVG Export Plug-In . SVG Version: 6.00 Build 0)  -->
<svg version="1.1" id="Layer_1" xmlns="http://www.w3.org/2000/svg" xmlns:xlink="http://www.w3.org/1999/xlink" x="0px" y="0px"
	 viewBox="0 0 32 32" style="enable-background:new 0 0 32 32;" xml:space="preserve">
<style type="text/css">
	.Black{fill:#727272;}
	.Blue{fill:#1177D7;}
</style>
<path class="Blue" d="M14,18v6h18v-6H14z M28,22H18v-2h10V22z"/>
<path class="Blue" d="M0,12v7c0,0.6,0.4,1,1,1h14c0.6,0,1-0.4,1-1v-7H0z M12,16H4v-2h8V16z"/>
<path class="Black" d="M0,1v18c0,0.6,0.4,1,1,1h14c0.6,0,1-0.4,1-1V1c0-0.6-0.4-1-1-1H1C0.4,0,0,0.4,0,1z M14,18H2V2h12V18z"/>
<path class="Black" d="M14,11v20c0,0.6,0.4,1,1,1h16c0.6,0,1-0.4,1-1V11c0-0.6-0.4-1-1-1H15C14.4,10,14,10.4,14,11z M30,30H16V12h14
	V30z"/>
<rect x="4" y="8" class="Black" width="8" height="2"/>
<rect x="4" y="4" class="Black" width="8" height="2"/>
<rect x="18" y="14" class="Black" width="10" height="2"/>
<rect x="18" y="26" class="Black" width="10" height="2"/>
</svg>
