<?xml version="1.0" encoding="utf-8"?>
<!-- Generator: Adobe Illustrator 21.1.0, SVG Export Plug-In . SVG Version: 6.00 Build 0)  -->
<svg version="1.1" id="Layer_1" xmlns="http://www.w3.org/2000/svg" xmlns:xlink="http://www.w3.org/1999/xlink" x="0px" y="0px"
	 viewBox="0 0 32 32" style="enable-background:new 0 0 32 32;" xml:space="preserve">
<style type="text/css">
	.Black{fill:#727272;}
</style>
<path class="Black" d="M31,6h-3V1c0-0.6-0.4-1-1-1h-1H16H1C0.4,0,0,0.4,0,1v10c0,0.6,0.4,1,1,1h7v19c0,0.6,0.4,1,1,1h22
	c0.6,0,1-0.4,1-1V7C32,6.4,31.6,6,31,6z M2,10V2h14v4H9C8.4,6,8,6.4,8,7v3H2z M30,30H10V12v-2V8h20V30z"/>
<path class="Black" d="M13,18h6c0.6,0,1-0.4,1-1v-6c0-0.6-0.4-1-1-1h-6c-0.6,0-1,0.4-1,1v6C12,17.6,12.4,18,13,18z M14,13l1,1
	l2.5-2.5l1,1L16,15l-1,1l-1-1l-1-1L14,13z"/>
<path class="Black" d="M13,28h6c0.6,0,1-0.4,1-1v-6c0-0.6-0.4-1-1-1h-6c-0.6,0-1,0.4-1,1v6C12,27.6,12.4,28,13,28z M14,23l1,1
	l2.5-2.5l1,1L16,25l-1,1l-1-1l-1-1L14,23z"/>
<rect x="22" y="12" class="Black" width="6" height="2"/>
<rect x="22" y="22" class="Black" width="6" height="2"/>
</svg>
