<?xml version="1.0" encoding="utf-8"?>
<!-- Generator: Adobe Illustrator 23.0.3, SVG Export Plug-In . SVG Version: 6.00 Build 0)  -->
<svg version="1.1" id="Layer_1" xmlns="http://www.w3.org/2000/svg" xmlns:xlink="http://www.w3.org/1999/xlink" x="0px" y="0px"
	 viewBox="0 0 32 32" style="enable-background:new 0 0 32 32;" xml:space="preserve">
<style type="text/css">
	.Black{fill:#727272;}
</style>
<path class="Black" d="M2,1v12c0,0.6,0.4,1,1,1h28c0.6,0,1-0.4,1-1V1c0-0.6-0.4-1-1-1H3C2.4,0,2,0.4,2,1z M30,12H4V6h26V12z"/>
<path class="Black" d="M2,17v12c0,0.6,0.4,1,1,1h28c0.6,0,1-0.4,1-1V17c0-0.6-0.4-1-1-1H3C2.4,16,2,16.4,2,17z M30,28H4v-6h26V28z"
	/>
</svg>
