<?xml version="1.0" encoding="utf-8"?>
<!-- Generator: Adobe Illustrator 23.0.3, SVG Export Plug-In . SVG Version: 6.00 Build 0)  -->
<svg version="1.1" id="Layer_1" xmlns="http://www.w3.org/2000/svg" xmlns:xlink="http://www.w3.org/1999/xlink" x="0px" y="0px"
	 viewBox="0 0 32 32" style="enable-background:new 0 0 32 32;" xml:space="preserve">
<style type="text/css">
	.Black{fill:#727272;}
</style>
<rect x="12" class="Black" width="2" height="2"/>
<rect x="8" class="Black" width="2" height="2"/>
<rect x="20" class="Black" width="2" height="2"/>
<rect x="12" y="28" class="Black" width="2" height="2"/>
<rect x="8" y="28" class="Black" width="2" height="2"/>
<rect x="2" y="6" class="Black" width="2" height="2"/>
<rect x="2" y="22" class="Black" width="2" height="2"/>
<rect x="2" y="14" class="Black" width="2" height="2"/>
<rect x="2" y="18" class="Black" width="2" height="2"/>
<rect x="16" y="28" class="Black" width="2" height="2"/>
<rect x="2" y="10" class="Black" width="2" height="2"/>
<rect x="16" class="Black" width="2" height="2"/>
<path class="Black" d="M4,4V2h2V0H3C2.4,0,2,0.4,2,1v3H4z"/>
<path class="Black" d="M28,2h2v2h2V1c0-0.6-0.4-1-1-1h-3V2z"/>
<rect x="30" y="14" class="Black" width="2" height="2"/>
<rect x="20" y="28" class="Black" width="2" height="2"/>
<path class="Black" d="M6,28H4v-2H2v3c0,0.6,0.4,1,1,1h3V28z"/>
<rect x="30" y="18" class="Black" width="2" height="2"/>
<path class="Black" d="M30,26v2h-2v2h3c0.6,0,1-0.4,1-1v-3H30z"/>
<rect x="24" class="Black" width="2" height="2"/>
<rect x="30" y="22" class="Black" width="2" height="2"/>
<rect x="24" y="28" class="Black" width="2" height="2"/>
<rect x="30" y="6" class="Black" width="2" height="2"/>
<rect x="30" y="10" class="Black" width="2" height="2"/>
<path class="Black" d="M6,5v8c0,0.6,0.4,1,1,1h20c0.6,0,1-0.4,1-1V5c0-0.6-0.4-1-1-1H7C6.4,4,6,4.4,6,5z M26,12H8V6h18V12z"/>
<path class="Black" d="M15,26H7c-0.6,0-1-0.4-1-1v-8c0-0.6,0.4-1,1-1h8c0.6,0,1,0.4,1,1v8C16,25.6,15.6,26,15,26z"/>
<path class="Black" d="M27,26h-8c-0.6,0-1-0.4-1-1v-8c0-0.6,0.4-1,1-1h8c0.6,0,1,0.4,1,1v8C28,25.6,27.6,26,27,26z"/>
</svg>
