<?xml version="1.0" encoding="utf-8"?>
<!-- Generator: Adobe Illustrator 23.0.3, SVG Export Plug-In . SVG Version: 6.00 Build 0)  -->
<svg version="1.1" id="Layer_1" xmlns="http://www.w3.org/2000/svg" xmlns:xlink="http://www.w3.org/1999/xlink" x="0px" y="0px"
	 viewBox="0 0 32 32" style="enable-background:new 0 0 32 32;" xml:space="preserve">
<style type="text/css">
	.Black{fill:#727272;}
</style>
<rect x="12" y="2" class="Black" width="16" height="2"/>
<path class="Black" d="M4,1v4c0,0.6,0.4,1,1,1h4c0.6,0,1-0.4,1-1V1c0-0.6-0.4-1-1-1H5C4.4,0,4,0.4,4,1z M8,4H6V2h2V4z"/>
<rect x="12" y="10" class="Black" width="16" height="2"/>
<path class="Black" d="M4,9v4c0,0.6,0.4,1,1,1h4c0.6,0,1-0.4,1-1V9c0-0.6-0.4-1-1-1H5C4.4,8,4,8.4,4,9z M8,12H6v-2h2V12z"/>
<rect x="12" y="18" class="Black" width="16" height="2"/>
<path class="Black" d="M4,17v4c0,0.6,0.4,1,1,1h4c0.6,0,1-0.4,1-1v-4c0-0.6-0.4-1-1-1H5C4.4,16,4,16.4,4,17z M8,20H6v-2h2V20z"/>
<rect x="12" y="26" class="Black" width="16" height="2"/>
<path class="Black" d="M4,25v4c0,0.6,0.4,1,1,1h4c0.6,0,1-0.4,1-1v-4c0-0.6-0.4-1-1-1H5C4.4,24,4,24.4,4,25z M8,28H6v-2h2V28z"/>
</svg>
