<?xml version="1.0" encoding="utf-8"?>
<!-- Generator: Adobe Illustrator 23.0.2, SVG Export Plug-In . SVG Version: 6.00 Build 0)  -->
<svg version="1.1" id="Layer_1" xmlns="http://www.w3.org/2000/svg" xmlns:xlink="http://www.w3.org/1999/xlink" x="0px" y="0px"
	 viewBox="0 0 32 32" style="enable-background:new 0 0 32 32;" xml:space="preserve">
<style type="text/css">
	.Green{fill:#039C23;}
</style>
<path class="Green" d="M30,10V8h-2V6h-2v2h-2V6h-2v2h-2v2h2v2h-2v2h2v2h2v-2h2v2h2v-2h2v-2h-2v-2H30z M26,12h-2v-2h2V12z"/>
<path class="Green" d="M16,24.8c-1.4,0.8-3.1,1.2-5.1,1.2c-2.7,0-4.8-0.8-6.5-2.5S1.9,19.7,1.9,17c0-3,0.9-5.3,2.6-7.1
	s4.1-2.7,7.1-2.7c1.6,0,3.1,0.3,4.3,0.9v3.8c-1.3-0.9-2.6-1.4-4-1.4c-1.7,0-3.1,0.6-4.2,1.7s-1.7,2.7-1.7,4.6c0,1.9,0.5,3.3,1.6,4.4
	s2.4,1.6,4.2,1.6c1.5,0,2.8-0.5,4.1-1.6V24.8z"/>
</svg>
