<?xml version="1.0" encoding="UTF-8"?>
<svg xmlns="http://www.w3.org/2000/svg" viewBox="0 0 32 32">
    <style type="text/css">
        .Black {
            fill: #727272;
        }
        .White {
            fill: #ffffff;
        }
        .Blue {
            fill: #1177D7;
        }
        .Yellow {
            fill: #FFB115;
        }
        .Green {
            fill: #039C23;
        }
        .Red {
            fill: #D11C1C;
        }
    </style>
    <title>Complete</title>
    <rect class="White" x="4" y="6" width="24" height="26"/>
    <path class="White" d="M14,0h4a6,6,0,0,1,6,6v6a0,0,0,0,1,0,0H8a0,0,0,0,1,0,0V6A6,6,0,0,1,14,0Z"/>
    <path class="Black" d="M6,8V30H26V8ZM22,26H10V12H22Z"/>
    <path class="Black" d="M18,2H14a4,4,0,0,0-4,4v4H22V6A4,4,0,0,0,18,2Zm2,6H12V6a2,2,0,0,1,2-2h4a2,2,0,0,1,2,2Z"/>
    <circle class="White" cx="8" cy="24" r="8" />
    <circle class="Black" cx="8" cy="24" r="6"/>
    <polygon class="White" points="3.99 25.08 7 28 12 23 12 21 7 26 4 23 3.99 25.08"/>
</svg>
