<?xml version="1.0" encoding="utf-8"?>
<!-- Generator: Adobe Illustrator 23.0.3, SVG Export Plug-In . SVG Version: 6.00 Build 0)  -->
<svg version="1.1" id="Layer_1" xmlns="http://www.w3.org/2000/svg" xmlns:xlink="http://www.w3.org/1999/xlink" x="0px" y="0px"
	 viewBox="0 0 32 32" style="enable-background:new 0 0 32 32;" xml:space="preserve">
<style type="text/css">
	.Black{fill:#727272;}
</style>
<path class="Black" d="M26,28c-3.3,0-6-0.9-6-2v2c0,1.1,2.7,2,6,2s6-0.9,6-2v-2C32,27.1,29.3,28,26,28z M26,24c-3.3,0-6-0.9-6-2v2
	c0,1.1,2.7,2,6,2s6-0.9,6-2v-2C32,23.1,29.3,24,26,24z M26,16c-3.3,0-6,0.9-6,2v2c0,1.1,2.7,2,6,2s6-0.9,6-2v-2
	C32,16.9,29.3,16,26,16z"/>
<rect x="2" y="4" class="Black" width="8" height="6"/>
<rect x="12" y="4" class="Black" width="8" height="6"/>
<rect x="22" y="4" class="Black" width="8" height="6"/>
<rect x="2" y="12" class="Black" width="8" height="6"/>
<rect x="2" y="20" class="Black" width="8" height="6"/>
<rect x="12" y="20" class="Black" width="6" height="6"/>
<path class="Black" d="M20,15.7V12h-8v6h6.2C18.4,17.1,19.1,16.3,20,15.7z"/>
<path class="Black" d="M30,14.7V12h-8v2.7c1.2-0.4,2.5-0.7,4-0.7S28.8,14.2,30,14.7z"/>
</svg>
