<?xml version="1.0" encoding="utf-8"?>
<!-- Generator: Adobe Illustrator 23.0.3, SVG Export Plug-In . SVG Version: 6.00 Build 0)  -->
<svg version="1.1" id="Layer_1" xmlns="http://www.w3.org/2000/svg" xmlns:xlink="http://www.w3.org/1999/xlink" x="0px" y="0px"
	 viewBox="0 0 32 32" style="enable-background:new 0 0 32 32;" xml:space="preserve">
<style type="text/css">
	.Black{fill:#727272;}
</style>
<path class="Black" d="M20,6v2h10v20H4V8h2V6H3C2.4,6,2,6.4,2,7v22c0,0.6,0.4,1,1,1h28c0.6,0,1-0.4,1-1V7c0-0.6-0.4-1-1-1H20z"/>
<polygon class="Black" points="14,2 12,2 11,4 10,2 8,2 10,6 8,10 10,10 11,8 12,10 14,10 12,6 "/>
<polygon class="Black" points="18,2 17,4 16,2 14,2 16,6 16,10 18,10 18,6 20,2 "/>
</svg>
