<?xml version="1.0" encoding="iso-8859-1"?>
<!-- Generator: Adobe Illustrator 19.0.0, SVG Export Plug-In . SVG Version: 6.00 Build 0)  -->
<svg version="1.1" id="Layer_1" xmlns="http://www.w3.org/2000/svg" xmlns:xlink="http://www.w3.org/1999/xlink" x="0px" y="0px"
	 viewBox="0 0 512.003 512.003" style="enable-background:new 0 0 512.003 512.003;" xml:space="preserve">
<g>
	<g>
		<rect y="161.132" width="512.003" height="42.311"/>
	</g>
</g>
<g>
	<g>
		<path d="M0,233.863v158.751c0,27.354,22.253,49.607,49.607,49.607h412.785c27.354,0,49.607-22.254,49.607-49.607V233.863H0z
			 M373.396,260.733h30.417v47.117h-30.417V260.733z M320.354,260.733h30.417v47.117h-30.417V260.733z M161.229,260.733h30.417
			v47.117h-30.417V260.733z M108.186,260.733h30.417v47.117h-30.417V260.733z M55.144,260.733h30.417v47.117H55.144V260.733z
			 M236.318,362.94H55.144v-30.417h181.173V362.94z M244.687,307.851H214.27v-47.117h30.417V307.851z M267.313,260.733h30.417
			v47.117h-30.417V260.733z M456.855,362.94H275.681v-30.417h181.173V362.94z M456.856,307.851h-30.417v-47.117h30.417V307.851z"/>
	</g>
</g>
<g>
	<g>
		<path d="M462.393,69.782H49.607C22.253,69.782,0,92.035,0,119.39v11.327h512V119.39C512,92.035,489.747,69.782,462.393,69.782z"/>
	</g>
</g>
<g>
</g>
<g>
</g>
<g>
</g>
<g>
</g>
<g>
</g>
<g>
</g>
<g>
</g>
<g>
</g>
<g>
</g>
<g>
</g>
<g>
</g>
<g>
</g>
<g>
</g>
<g>
</g>
<g>
</g>
</svg>
