<?xml version="1.0" encoding="iso-8859-1"?>
<!-- Generator: Adobe Illustrator 16.0.0, SVG Export Plug-In . SVG Version: 6.00 Build 0)  -->
<!DOCTYPE svg PUBLIC "-//W3C//DTD SVG 1.1//EN" "http://www.w3.org/Graphics/SVG/1.1/DTD/svg11.dtd">
<svg version="1.1" id="Capa_1" xmlns="http://www.w3.org/2000/svg" xmlns:xlink="http://www.w3.org/1999/xlink" x="0px" y="0px"
	 width="408px" height="408px" viewBox="0 0 408 408" style="enable-background:new 0 0 408 408;" xml:space="preserve">
<g>
	<path d="M346.8,0H61.2C49.933,0,40.8,9.132,40.8,20.4v367.2c0,11.268,9.133,20.4,20.4,20.4h285.6c11.268,0,20.4-9.133,20.4-20.4
		V20.4C367.2,9.132,358.067,0,346.8,0z M142.8,61.132c0-3.719,3.013-6.732,6.732-6.732h108.936c3.72,0,6.732,3.013,6.732,6.732
		v6.936c0,3.72-3.013,6.732-6.732,6.732H149.532c-3.72,0-6.732-3.012-6.732-6.732V61.132z M95.2,122.332
		c0-3.72,3.012-6.732,6.732-6.732h204.136c3.72,0,6.731,3.012,6.731,6.732v0.136c0,3.72-3.012,6.732-6.731,6.732H101.932
		c-3.72,0-6.732-3.013-6.732-6.732V122.332z M95.2,169.932c0-3.72,3.012-6.732,6.732-6.732h204.136c3.72,0,6.731,3.012,6.731,6.732
		v0.136c0,3.72-3.012,6.732-6.731,6.732H101.932c-3.72,0-6.732-3.012-6.732-6.732V169.932z M95.2,210.732
		c0-3.72,3.012-6.732,6.732-6.732h204.136c3.72,0,6.731,3.013,6.731,6.732v0.136c0,3.72-3.012,6.731-6.731,6.731H101.932
		c-3.72,0-6.732-3.012-6.732-6.731V210.732z M95.2,251.532c0-3.72,3.012-6.732,6.732-6.732h204.136c3.72,0,6.731,3.013,6.731,6.732
		v0.136c0,3.72-3.012,6.732-6.731,6.732H101.932c-3.72,0-6.732-3.013-6.732-6.732V251.532z M95.2,299.268v-0.136
		c0-3.72,3.012-6.731,6.732-6.731h204.136c3.72,0,6.731,3.012,6.731,6.731v0.136c0,3.72-3.012,6.732-6.731,6.732H101.932
		C98.212,306,95.2,302.987,95.2,299.268z M307.992,351.607c-4.808-4.808-4.808-4.808-15.592-4.808
		c-5.699,0-9.942,1.415-14.852,3.047c-5.27,1.761-11.247,3.753-19.148,3.753c-11.003,0-14.437-6.867-16.286-10.56
		c-1.489-2.979-1.517-3.04-4.114-3.04c-6.419,0-6.8,13.484-6.8,13.62L217.6,353.6c0-9.411,4.264-27.199,20.4-27.199
		c11.002,0,14.437,6.867,16.286,10.56c1.489,2.979,1.517,3.04,4.114,3.04c5.698,0,9.941-1.414,14.851-3.047
		c5.271-1.761,11.247-3.753,19.149-3.753c14.797,0,16.7,0.285,25.207,8.792L307.992,351.607z"/>
</g>
<g>
</g>
<g>
</g>
<g>
</g>
<g>
</g>
<g>
</g>
<g>
</g>
<g>
</g>
<g>
</g>
<g>
</g>
<g>
</g>
<g>
</g>
<g>
</g>
<g>
</g>
<g>
</g>
<g>
</g>
</svg>
