<?xml version="1.0" standalone="no"?><!DOCTYPE svg PUBLIC "-//W3C//DTD SVG 1.1//EN" "http://www.w3.org/Graphics/SVG/1.1/DTD/svg11.dtd"><svg t="1665557964032" class="icon" viewBox="0 0 1024 1024" version="1.1" xmlns="http://www.w3.org/2000/svg" p-id="57194" xmlns:xlink="http://www.w3.org/1999/xlink" width="32" height="32"><path d="M417.696 224c0-52.928 43.072-96 96-96s96 43.072 96 96-43.072 96-96 96S417.696 276.928 417.696 224z" p-id="57195"></path><path d="M417.696 512c0-52.928 43.072-96 96-96s96 43.072 96 96-43.072 96-96 96S417.696 564.928 417.696 512z" p-id="57196"></path><path d="M417.696 800c0-52.928 43.072-96 96-96s96 43.072 96 96-43.072 96-96 96S417.696 852.928 417.696 800z" p-id="57197"></path></svg>