<!-- by TradingView --><svg width="18" height="18" fill="none" xmlns="http://www.w3.org/2000/svg"><path fill="#511732" d="M0 0h18v18H0z"/><path d="M2 11.25h3v-.8H3.19v-.04l.87-.828c.718-.69.955-1.033.955-1.56v-.007c0-.74-.603-1.265-1.484-1.265S2 7.325 2 8.145v.024h.809l.003-.027c.011-.392.3-.684.725-.684.37 0 .63.253.63.609v.006c0 .301-.11.515-.648 1.04L2 10.55v.7ZM7.133 11.248c1.045 0 1.68-.864 1.68-2.247v-.006c0-1.383-.635-2.245-1.68-2.245-1.049 0-1.684.862-1.684 2.245V9c0 1.383.635 2.248 1.684 2.248Zm0-.729c-.512 0-.8-.563-.8-1.518v-.006c0-.955.288-1.516.8-1.516.508 0 .8.56.8 1.516V9c0 .955-.292 1.518-.8 1.518ZM10.726 11.248c1.045 0 1.68-.864 1.68-2.247v-.006c0-1.383-.635-2.245-1.68-2.245-1.049 0-1.684.862-1.684 2.245V9c0 1.383.635 2.248 1.684 2.248Zm0-.729c-.511 0-.8-.563-.8-1.518v-.006c0-.955.289-1.516.8-1.516.508 0 .8.56.8 1.516V9c0 .955-.292 1.518-.8 1.518ZM14.319 11.248c1.046 0 1.681-.864 1.681-2.247v-.006c0-1.383-.635-2.245-1.681-2.245-1.048 0-1.684.862-1.684 2.245V9c0 1.383.636 2.248 1.684 2.248Zm0-.729c-.511 0-.8-.563-.8-1.518v-.006c0-.955.289-1.516.8-1.516.508 0 .8.56.8 1.516V9c0 .955-.292 1.518-.8 1.518Z" fill="#fff"/></svg>