<!-- by TradingView --><svg width="18" height="18" fill="none" xmlns="http://www.w3.org/2000/svg"><path fill="#032775" d="M0 0h18v18H0z"/><path fill-rule="evenodd" clip-rule="evenodd" d="M6.373 10.854c-.675-2.983-.282-5.073 0-5.745l3.244-1.112v2.091l-.017.018c-.427.43-1.106 1.19-1.735 2.059-.628.867-1.231 1.825-1.458 2.68v.008h-.034Zm.035-.347c.258-.81.78-1.61 1.363-2.416A18.696 18.696 0 0 1 9.5 6.036V4.12c-1.088.72-3.024 2.871-3.092 6.388Zm3.277-4.445 3.25-.953c.204 1.115.046 3.913-2.216 6.183-1.554 1.559-3.027 2.395-4.25 2.705h-.115l.002-.002v-2.933l.05-.008c.104-.017.272-.083.493-.212.22-.128.487-.315.789-.569.592-.498 1.316-1.252 2.067-2.316.022-.97-.03-1.633-.07-1.895ZM9.75 8.17c-.72.998-1.413 1.715-1.987 2.197-.307.258-.58.449-.806.58-.196.115-.36.187-.482.216v2.728c1.048-.924 3.084-2.986 3.211-4.595.033-.407.053-.784.064-1.126Z" fill="#fff"/></svg>