<?xml version="1.0" encoding="utf-8"?>
<!-- Generator: Adobe Illustrator 23.0.3, SVG Export Plug-In . SVG Version: 6.00 Build 0)  -->
<svg version="1.1" id="Layer_1" xmlns="http://www.w3.org/2000/svg" xmlns:xlink="http://www.w3.org/1999/xlink" x="0px" y="0px"
	 viewBox="0 0 32 32" style="enable-background:new 0 0 32 32;" xml:space="preserve">
<style type="text/css">
	.Black{fill:#727272;}
</style>
<path class="Black" d="M17.2,14.5c0.3-0.3,0.5-0.6,0.5-1.1c0-0.9-0.7-1.3-2-1.3h-1v2.8h1.2C16.4,14.9,16.8,14.8,17.2,14.5z"/>
<path class="Black" d="M17.6,17.3c-0.3-0.3-0.8-0.4-1.4-0.4h-1.5V20h1.5c0.6,0,1.1-0.1,1.5-0.4s0.5-0.7,0.5-1.2
	C18.1,17.9,17.9,17.6,17.6,17.3z"/>
<path class="Black" d="M31,6H1C0.4,6,0,6.4,0,7v18c0,0.6,0.4,1,1,1h30c0.6,0,1-0.4,1-1V7C32,6.4,31.6,6,31,6z M19.8,21
	c-0.8,0.6-1.8,1-3.2,1H12V10.1h4.3c1.3,0,2.3,0.2,3.1,0.7s1.1,1.2,1.1,2.1c0,0.6-0.2,1.2-0.7,1.7c-0.4,0.5-1,0.8-1.7,1l0,0
	c0.8,0.1,1.5,0.4,2,0.9c0.5,0.5,0.8,1.2,0.8,1.9C20.9,19.5,20.5,20.4,19.8,21z"/>
</svg>
