<?xml version="1.0" encoding="utf-8"?>
<!-- Generator: Adobe Illustrator 23.0.2, SVG Export Plug-In . SVG Version: 6.00 Build 0)  -->
<svg version="1.1" id="Layer_1" xmlns="http://www.w3.org/2000/svg" xmlns:xlink="http://www.w3.org/1999/xlink" x="0px" y="0px"
	 viewBox="0 0 32 32" style="enable-background:new 0 0 32 32;" xml:space="preserve">
<style type="text/css">
	.Blue{fill:#1177D7;}
</style>
<path class="Blue" d="M4,12C4,6.5,8.5,2,14,2c3.3,0,6.2,1.6,8,4l0,0l2,2.7V2l4,4v6v4h-4h-6l-4-4h7.7l-3.3-4c-1.1-1.2-2.7-2-4.4-2
	c-3.3,0-6,2.7-6,6c0,1.5,0.5,2.8,1.4,3.8L19,27l-3,3L6.4,18.5l0,0C4.9,16.7,4,14.5,4,12z"/>
</svg>
