<?xml version="1.0" encoding="utf-8"?>
<!-- Generator: Adobe Illustrator 23.0.2, SVG Export Plug-In . SVG Version: 6.00 Build 0)  -->
<svg version="1.1" id="Layer_1" xmlns="http://www.w3.org/2000/svg" xmlns:xlink="http://www.w3.org/1999/xlink" x="0px" y="0px"
	 viewBox="0 0 32 32" style="enable-background:new 0 0 32 32;" xml:space="preserve">
<style type="text/css">
	.Blue{fill:#1177D7;}
	.Black{fill:#727272;}
</style>
<polygon class="Black" points="16,30 16,20 20,25 "/>
<rect x="8" y="16" class="Black" width="2" height="2"/>
<rect x="6" y="20" class="Black" width="2" height="2"/>
<rect x="8" y="24" class="Black" width="2" height="2"/>
<rect x="12" y="24" class="Black" width="2" height="2"/>
<path class="Blue" d="M29.3,24.2c0.4-0.6,0.7-1.4,0.7-2.2c0-2.2-1.8-4-4-4h-2h-1h-1v14h2h4c2.2,0,4-1.8,4-4
	C32,26.3,30.9,24.8,29.3,24.2z M26,20c1.1,0,2,0.9,2,2c0,1.1-0.9,2-2,2h-2v-4H26z M28,30h-4v-4h4c1.1,0,2,0.9,2,2
	C30,29.1,29.1,30,28,30z"/>
<path class="Black" d="M8,14h2L6,0H4L0,14h2l1.1-4h3.7L8,14z M3.7,8L5,3.5L6.3,8H3.7z"/>
<polygon class="Black" points="26,8 18,0 26,0 "/>
<rect x="18" y="4" class="Black" width="2" height="2"/>
<rect x="16" y="8" class="Black" width="2" height="2"/>
<rect x="18" y="16" class="Black" width="2" height="2"/>
<rect x="16" y="12" class="Black" width="2" height="2"/>
</svg>
