<?xml version="1.0" encoding="UTF-8"?>
<svg xmlns="http://www.w3.org/2000/svg" viewBox="0 0 32 32">
    <style type="text/css">
        .Black {
            fill: #727272;
        }
        .White {
            fill: #ffffff;
        }
        .Blue {
            fill: #1177D7;
        }
        .Yellow {
            fill: #FFB115;
        }
        .Green {
            fill: #039C23;
        }
        .Red {
            fill: #D11C1C;
        }
    </style>
    <title>Project</title>
    <rect class="White" width="32" height="28"/>
    <polygon class="Black" points="2 2 2 19 4 19 4 8 28 8 28 24 17 24 17 26 30 26 30 2 2 2"/>
    <path class="White" d="M6.61,24.19,1.94,27.7,0,26.71V17.29l1.94-1,4.67,3.51,7.64-7.43L19,14.19V29.81l-4.75,1.81ZM13,23.63V20.37L10.8,22Z"/>
    <path class="Black" d="M18,14.92,14.36,13.5,6.75,20.91,2,17.39l-1,.48v8.26l1,.48,4.7-3.52,7.65,7.41L18,29.08V14.92ZM3,24V20l2.12,2L3,24Zm11-5.22v6.52L9.6,22Z"/>
</svg>
