<?xml version="1.0" encoding="utf-8"?>
<!-- Generator: Adobe Illustrator 23.0.2, SVG Export Plug-In . SVG Version: 6.00 Build 0)  -->
<svg version="1.1" id="Layer_1" xmlns="http://www.w3.org/2000/svg" xmlns:xlink="http://www.w3.org/1999/xlink" x="0px" y="0px"
	 viewBox="0 0 32 32" style="enable-background:new 0 0 32 32;" xml:space="preserve">
<style type="text/css">
	.Blue{fill:#1177D7;}
</style>
<path class="Blue" d="M28,12c0-5.5-4.5-10-10-10c-3.3,0-6.2,1.6-8,4l0,0L8,8.7V2L4,6v6v4h4h6l4-4h-7.7l3.3-4c1.1-1.2,2.7-2,4.4-2
	c3.3,0,6,2.7,6,6c0,1.5-0.5,2.8-1.4,3.8L13,27l3,3l9.6-11.5l0,0C27.1,16.7,28,14.5,28,12z"/>
</svg>
